<svg width="512" height="512" viewBox="0 0 512 512" fill="none" xmlns="http://www.w3.org/2000/svg">
<path d="M131.169 173.124C157.825 179.647 174.146 206.543 167.624 233.199L114.17 451.647C110.908 464.975 97.4601 473.136 84.1322 469.874V469.874C70.8044 466.613 62.6438 453.165 65.9051 439.837L131.169 173.124V173.124Z" fill="#6DA0DD"/>
<path d="M361.332 293.414C335.164 285.149 320.652 257.235 328.918 231.067L381.55 64.4427C385.683 51.3588 399.64 44.1026 412.724 48.2354V48.2354C425.808 52.3683 433.064 66.3252 428.931 79.4091L361.332 293.414V293.414Z" fill="#6DA0DD"/>
<path d="M86.8272 53.2875C112.102 34.9033 147.494 40.4891 165.879 65.7638L452 459.124V459.124C426.725 477.508 391.333 471.923 372.949 446.648L86.8272 53.2875V53.2875Z" fill="#6DA0DD"/>
</svg>
